<?xml version="1.0" encoding="UTF-8"?>
<svg version="1.1" xmlns="http://www.w3.org/2000/svg" width="96" height="96">
<path d="M0 0 C23.76 0 47.52 0 72 0 C72 23.76 72 47.52 72 72 C48.24 72 24.48 72 0 72 C0 48.24 0 24.48 0 0 Z " fill="#FED500" transform="translate(12,12)"/>
<path d="M0 0 C3 1.875 3 1.875 5 4 C5 4.66 5 5.32 5 6 C2 8 2 8 -1 8 C-1 7.34 -1 6.68 -1 6 C-2.65 6.33 -4.3 6.66 -6 7 C-5.79000111 8.94827911 -5.79000111 8.94827911 -5 11 C-3.29031441 12.20335085 -3.29031441 12.20335085 -1.1875 13 C2.21962245 14.58428135 4.8182055 15.81821636 7 19 C7.61984499 23.26143432 7.49311964 25.24388322 5.125 28.875 C2.28167297 31.71832703 0.66737316 32.18591821 -3.25 32.3125 C-7.86151873 32.2678724 -10.47367334 31.08553583 -14 28 C-14.33 27.01 -14.66 26.02 -15 25 C-11.25 22 -11.25 22 -9 22 C-8.34 22.99 -7.68 23.98 -7 25 C-3.91634129 25.2502157 -3.91634129 25.2502157 -1 25 C-1 23.68 -1 22.36 -1 21 C-1.92232422 20.51080078 -1.92232422 20.51080078 -2.86328125 20.01171875 C-4.07564453 19.35623047 -4.07564453 19.35623047 -5.3125 18.6875 C-6.11300781 18.25824219 -6.91351563 17.82898438 -7.73828125 17.38671875 C-9.90603485 16.05761248 -11.45213758 15.01173286 -13 13 C-13.67834939 9.93046902 -13.57893762 7.08395616 -13 4 C-9.54756505 -0.42343228 -5.29728045 -1.08936009 0 0 Z " fill="#0C0A00" transform="translate(69,44)"/>
<path d="M0 0 C2.31 0 4.62 0 7 0 C7.11662261 4.04142215 7.1873935 8.08240865 7.25 12.125 C7.30027344 13.83816406 7.30027344 13.83816406 7.3515625 15.5859375 C7.47668164 26.34618348 7.47668164 26.34618348 3 31 C-0.65288193 32.21762731 -3.15754136 32.39075851 -7 32 C-9.3324223 30.54350922 -11.01251848 28.93900636 -13 27 C-12 24 -12 24 -9.9375 22.8125 C-9.298125 22.544375 -8.65875 22.27625 -8 22 C-7.34 22.66 -6.68 23.32 -6 24 C-4.35 24 -2.7 24 -1 24 C-0.67 16.08 -0.34 8.16 0 0 Z " fill="#0B0900" transform="translate(44,44)"/>
</svg>
