<?xml version="1.0" encoding="UTF-8"?>
<svg version="1.1" xmlns="http://www.w3.org/2000/svg" width="96" height="96">
<path d="M0 0 C5 1 5 1 6 2 C6.36260596 6.34243642 6.44228894 10.69016647 6.51489258 15.04541016 C6.54648574 16.50841676 6.59419531 17.97116903 6.65844727 19.43310547 C7.18444477 31.56538215 7.18444477 31.56538215 4.28466797 35.07763672 C0.34141017 37.60684787 -3.31965452 38.97507197 -8 38 C-11.44988104 36.9713082 -13.74234771 35.85235094 -16 33 C-17.17576006 28.12234195 -17.17576006 23.87765805 -16 19 C-13.74916929 16.15626754 -11.45530734 14.99254789 -8 14 C-4.5625 13.625 -4.5625 13.625 -2 14 C-1.67 14.33 -1.34 14.66 -1 15 C-0.67 10.05 -0.34 5.1 0 0 Z M-8.3125 22.375 C-8.869375 22.91125 -9.42625 23.4475 -10 24 C-9.89386164 26.45224694 -9.89386164 26.45224694 -9 29 C-6.75691443 30.66390749 -6.75691443 30.66390749 -4 31 C-1.67488528 29.73647948 -1.67488528 29.73647948 0 28 C-0.10613836 25.54775306 -0.10613836 25.54775306 -1 23 C-4.03497208 21.03136946 -5.13043365 20.48296055 -8.3125 22.375 Z " fill="#36464E" transform="translate(66,24)"/>
<path d="M0 0 C2.42288163 1.23113904 4.68477852 2.56456269 7 4 C7.59140434 8.79694633 7.87294467 13.22790249 7 18 C4.17571169 21.21699888 1.17174707 23.02557733 -3 24 C-7.35782769 22.75303123 -11.11222962 20.28692375 -15 18 C-15 13.38 -15 8.76 -15 4 C-5.36768617 -1.98371011 -5.36768617 -1.98371011 0 0 Z " fill="#4AAD4E" transform="translate(39,39)"/>
<path d="M0 0 C2.04296875 1.3671875 2.04296875 1.3671875 3.625 2.9375 C4.3125 6.625 4.3125 6.625 3.625 9.9375 C0.625 11.9375 0.625 11.9375 -3.375 11.9375 C-3.375 10.2875 -3.375 8.6375 -3.375 6.9375 C-5.72867713 6.2496764 -5.72867713 6.2496764 -8.375 5.9375 C-9.365 6.5975 -10.355 7.2575 -11.375 7.9375 C-11.375 9.2575 -11.375 10.5775 -11.375 11.9375 C-9.16414962 13.67449873 -9.16414962 13.67449873 -6.375 15.0625 C-4.68059476 15.97088948 -3.00531518 16.91855301 -1.375 17.9375 C-1.375 18.5975 -1.375 19.2575 -1.375 19.9375 C-4.96376902 22.33001268 -6.13749208 22.49717086 -10.375 21.9375 C-13.82886898 20.93556684 -16.12247378 19.78337459 -18.375 16.9375 C-19.55076006 12.05984195 -19.55076006 7.81515805 -18.375 2.9375 C-13.5259845 -3.18881715 -6.52886724 -3.44770007 0 0 Z " fill="#34454C" transform="translate(92.375,40.0625)"/>
<path d="M0 0 C2.0546875 1.3203125 2.0546875 1.3203125 3.625 3.5625 C4.6584299 9.14760173 4.07137231 14.93944883 3.625 20.5625 C1.45625748 20.05646008 -0.37467627 19.56266187 -2.375 18.5625 C-2.7890625 16.27734375 -2.7890625 16.27734375 -3 13.5 C-3.07476562 12.58089844 -3.14953125 11.66179688 -3.2265625 10.71484375 C-3.27554687 10.00457031 -3.32453125 9.29429688 -3.375 8.5625 C-5.70354463 7.36411791 -5.70354463 7.36411791 -8.375 6.5625 C-9.365 7.2225 -10.355 7.8825 -11.375 8.5625 C-11.84515601 10.92534824 -11.84515601 10.92534824 -11.875 13.5625 C-11.96875 16.25 -11.96875 16.25 -12.375 18.5625 C-15.375 20.5625 -15.375 20.5625 -18.375 20.5625 C-19.58711405 5.29323001 -19.58711405 5.29323001 -16.8046875 1.3203125 C-11.24107268 -2.254786 -6.06369469 -2.45739206 0 0 Z " fill="#36464E" transform="translate(18.375,39.4375)"/>
<path d="M0 0 C2.99876322 2.80319171 5.16322727 5.59434917 7.25 9.125 C8.03117187 10.42824219 8.03117187 10.42824219 8.828125 11.7578125 C10 14 10 14 10 16 C8.31727014 15.37498605 6.65369357 14.69822617 5 14 C4.071875 13.690625 3.14375 13.38125 2.1875 13.0625 C0 11 0 11 -0.3125 8.359375 C-0.3125 5.55625031 -0.21349915 2.79446663 0 0 Z " fill="#2F8033" transform="translate(24,46)"/>
<path d="M0 0 C3.3 1.65 6.6 3.3 10 5 C10 8.96 10 12.92 10 17 C0 5.46153846 0 5.46153846 0 0 Z " fill="#307F34" transform="translate(36,38)"/>
<path d="M0 0 C0.33 0 0.66 0 1 0 C1 3.3 1 6.6 1 10 C-0.32 8.35 -1.64 6.7 -3 5 C-2.34 4.67 -1.68 4.34 -1 4 C-0.34786708 1.97536745 -0.34786708 1.97536745 0 0 Z " fill="#388E3C" transform="translate(45,45)"/>
<path d="M0 0 C1.32 1.32 2.64 2.64 4 4 C3.01 4.495 3.01 4.495 2 5 C1.34 6.32 0.68 7.64 0 9 C0 6.03 0 3.06 0 0 Z " fill="#388E3C" transform="translate(24,46)"/>
<path d="M0 0 C1.32 0 2.64 0 4 0 C4 1.32 4 2.64 4 4 C2.68 4 1.36 4 0 4 C0 2.68 0 1.36 0 0 Z " fill="#378D3B" transform="translate(83,48)"/>
</svg>
