<svg role="img" viewBox="0 0 96 96" xmlns="http://www.w3.org/2000/svg" id="Primeng--Streamline-Simple-Icons" height="96" width="96">
  <desc>
    Primeng Streamline Icon: https://streamlinehq.com
  </desc>
  <title>PrimeNG</title>
  <path d="M48 0 3.136 15.936l6.844 59.088L48 96l38.024 -20.976 6.84 -59.088ZM33.416 16.848h6.696L36.76 24.496l-10.04 -0.96Zm8.128 0h5.26v27.248h-2.868L23.372 36.448l-2.868 -11.952 17.232 1.4Zm7.176 0h5.256l3.812 9.044 17.708 -1.396 -2.868 11.952 -20.56 7.648h-3.348Zm6.692 0h6.696L68.8 23.54l-10.04 0.956zM23.852 38.36l5.26 1.912 5.26 5.26 4.304 -0.96 -3.348 4.784v14.816l-11.48 -9.56zm47.82 0v16.252l-11.48 9.56v-14.816l-3.348 -4.78 4.308 0.956 5.256 -5.26zm-31.144 6.144 2.384 1.44h9.536l2.388 -1.44 3.812 5.748v21.552l-2.86 4.312 -3.34 3.352h-9.536l-3.336 -3.352 -2.86 -4.312v-21.552zm-11.416 16.32 6.216 5.26v7.172L29.112 67.04Zm37.296 0v6.216l-6.212 6.216V66.08z" fill="#000000" stroke-width="4"></path>
</svg>