<?xml version="1.0" encoding="UTF-8"?>
<svg version="1.1" xmlns="http://www.w3.org/2000/svg" width="96" height="96">
<path d="M0 0 C31.68 0 63.36 0 96 0 C96 31.68 96 63.36 96 96 C64.32 96 32.64 96 0 96 C0 64.32 0 32.64 0 0 Z M62.125 48.625 C60.12885333 52.83908742 60.20136195 57.69474205 61.72265625 62.0859375 C65.2374532 67.35275861 73.08184364 70.44259043 79 72 C79.1875 74.875 79.1875 74.875 79 78 C75.34480082 80.43679946 74.01377491 80.11604695 69.875 79.4921875 C67.54992888 78.88185633 66.37020379 77.96966795 65 76 C62.08482708 77.07401108 60.22189824 77.77810176 58 80 C62.82609789 84.66473899 66.95683036 87.9313187 74.0078125 88.02734375 C78.91257793 87.66368244 82.16142421 86.19881316 86 83 C88.36109732 79.24119624 88.2186359 76.45321618 87.58203125 72.171875 C86.3481267 67.56750633 83.20364378 65.72600736 79.29296875 63.3671875 C74.42561292 60.27241303 74.42561292 60.27241303 69 59 C69.33 56.69 69.66 54.38 70 52 C73.94727588 51.82057837 76.5980513 51.90649311 80 54 C81.65 52.68 83.3 51.36 85 50 C80.9135898 45.9135898 77.99950639 44.20619987 72.1796875 43.86328125 C67.95917825 44.12800853 65.24102061 45.9244488 62.125 48.625 Z M22 45 C22 47.31 22 49.62 22 52 C25.96 52 29.92 52 34 52 C34 63.55 34 75.1 34 87 C36.64 87 39.28 87 42 87 C42 75.45 42 63.9 42 52 C45.96 52 49.92 52 54 52 C54 49.69 54 47.38 54 45 C43.44 45 32.88 45 22 45 Z " fill="#1576C7" transform="translate(0,0)"/>
</svg>
