<svg width="91" height="27" viewBox="0 0 91 27" fill="none" xmlns="http://www.w3.org/2000/svg">
<path d="M0 13.9453V10.1953L15 3.5902V7.90483L4.73011 12.0277L4.86861 11.804V12.3367L4.73011 12.1129L15 16.2358V20.5504L0 13.9453ZM18.9916 22.8409V1.02273H27.5996C29.2473 1.02273 30.6536 1.31747 31.8183 1.90696C32.9902 2.48935 33.8815 3.31676 34.4923 4.38921C35.1102 5.45455 35.4192 6.7081 35.4192 8.14986C35.4192 9.59872 35.1067 10.8452 34.4817 11.8892C33.8567 12.9261 32.9511 13.7216 31.7651 14.2756C30.5861 14.8295 29.1585 15.1065 27.4824 15.1065H21.7189V11.3992H26.7366C27.6173 11.3992 28.3489 11.2784 28.9312 11.0369C29.5136 10.7955 29.9469 10.4332 30.231 9.95029C30.5222 9.46733 30.6678 8.86719 30.6678 8.14986C30.6678 7.42543 30.5222 6.81463 30.231 6.31747C29.9469 5.82031 29.5101 5.44389 28.9206 5.18821C28.3382 4.92543 27.6031 4.79404 26.7153 4.79404H23.6045V22.8409H18.9916ZM30.7743 12.9119L36.1969 22.8409H31.1045L25.7991 12.9119H30.7743ZM49.9151 7.29759C49.8298 6.43821 49.4641 5.7706 48.8178 5.29475C48.1714 4.81889 47.2943 4.58097 46.1864 4.58097C45.4335 4.58097 44.7979 4.6875 44.2794 4.90057C43.7609 5.10654 43.3632 5.39418 43.0862 5.7635C42.8163 6.13282 42.6814 6.55185 42.6814 7.0206C42.6672 7.41122 42.7489 7.75213 42.9264 8.04333C43.1111 8.33452 43.3632 8.58665 43.6828 8.79972C44.0024 9.00568 44.3717 9.18679 44.7908 9.34304C45.2098 9.49219 45.6572 9.62003 46.1331 9.72656L48.0933 10.1953C49.045 10.4084 49.9186 10.6925 50.7141 11.0476C51.5095 11.4027 52.1984 11.8395 52.7808 12.358C53.3632 12.8764 53.8142 13.4872 54.1338 14.1903C54.4605 14.8935 54.6274 15.6996 54.6345 16.6087C54.6274 17.9439 54.2865 19.1016 53.6118 20.0817C52.9442 21.0547 51.9783 21.8111 50.7141 22.3509C49.457 22.8835 47.9406 23.1499 46.1651 23.1499C44.4037 23.1499 42.8696 22.88 41.5628 22.3402C40.2631 21.8004 39.2474 21.0014 38.5159 19.9432C37.7915 18.8778 37.4115 17.5604 37.376 15.9908H41.8398C41.8895 16.7223 42.099 17.3331 42.4683 17.8232C42.8447 18.3061 43.3455 18.6719 43.9705 18.9205C44.6026 19.1619 45.3163 19.2827 46.1118 19.2827C46.893 19.2827 47.5713 19.169 48.1466 18.9418C48.729 18.7145 49.18 18.3984 49.4996 17.9936C49.8192 17.5888 49.979 17.1236 49.979 16.598C49.979 16.108 49.8334 15.696 49.5422 15.3622C49.2581 15.0284 48.8391 14.7443 48.2851 14.5099C47.7382 14.2756 47.067 14.0625 46.2716 13.8707L43.8959 13.2742C42.0564 12.8267 40.604 12.1271 39.5386 11.1754C38.4733 10.2237 37.9442 8.94176 37.9513 7.32955C37.9442 6.00852 38.2957 4.85441 39.006 3.86719C39.7233 2.87997 40.707 2.10938 41.957 1.5554C43.207 1.00142 44.6274 0.724434 46.2183 0.724434C47.8376 0.724434 49.251 1.00142 50.4584 1.5554C51.6729 2.10938 52.6175 2.87997 53.2922 3.86719C53.9669 4.85441 54.3149 5.99787 54.3362 7.29759H49.9151ZM72.8983 1.3113e-06L65.867 26.1222H61.9572L68.9885 1.3113e-06H72.8983ZM90.3691 15.9908L75.3691 22.5959V18.2813L85.639 14.1584L85.5005 14.3821V13.8494L85.639 14.0732L75.3691 9.95029V5.63566L90.3691 12.2408V15.9908Z" fill="#111827"/>
</svg>
